<?xml version="1.0" standalone="no"?>
<!DOCTYPE svg PUBLIC "-//W3C//DTD SVG 20010904//EN"
 "http://www.w3.org/TR/2001/REC-SVG-20010904/DTD/svg10.dtd">
<svg version="1.0" xmlns="http://www.w3.org/2000/svg"
 width="2133.000000pt" height="2133.000000pt" viewBox="0 0 2133.000000 2133.000000"
 preserveAspectRatio="xMidYMid meet">
<metadata>
Created by potrace 1.14, written by Peter Selinger 2001-2017
</metadata>
<g transform="translate(0.000000,2133.000000) scale(0.100000,-0.100000)"
fill="#000000" stroke="none">
<path d="M10273 16380 c-18 -4 -33 -5 -33 -3 0 3 -6 1 -12 -5 -47 -38 -333
-69 -396 -43 -17 7 -56 13 -88 14 -63 1 -120 -22 -249 -98 -33 -19 -72 -41
-87 -47 -16 -7 -28 -17 -28 -23 0 -6 -12 -16 -27 -22 -54 -23 -98 -53 -121
-80 -12 -16 -28 -35 -35 -43 -6 -8 -11 -18 -10 -22 2 -5 -2 -8 -8 -8 -14 0
-59 -51 -59 -67 0 -6 -5 -13 -11 -15 -5 -2 -11 -12 -13 -23 -2 -13 -33 -34
-102 -68 -54 -27 -101 -54 -102 -58 -2 -5 -7 -7 -12 -4 -7 5 -37 -26 -86 -89
-16 -20 -32 -28 -65 -31 -98 -11 -118 -15 -150 -29 -121 -52 -158 -66 -171
-66 -8 0 -23 -7 -34 -15 -10 -8 -26 -15 -36 -15 -9 0 -18 -4 -20 -9 -1 -6 -22
-11 -45 -12 -23 -2 -40 -6 -37 -11 3 -4 -7 -8 -22 -8 -30 0 -90 -36 -99 -60
-11 -27 -70 -99 -81 -100 -7 0 -25 -15 -42 -34 -17 -19 -34 -32 -38 -28 -4 4
-4 1 0 -5 4 -7 4 -19 -1 -25 -4 -7 -8 -19 -10 -27 -1 -8 -5 -17 -10 -20 -5 -3
-8 -19 -7 -36 3 -48 -58 -129 -125 -167 -31 -17 -74 -45 -96 -62 -41 -33 -51
-39 -106 -70 -19 -10 -63 -49 -99 -86 -36 -37 -73 -70 -82 -73 -10 -4 -18 -13
-18 -22 0 -8 -7 -15 -15 -15 -8 0 -15 -4 -15 -10 0 -5 -25 -33 -56 -62 -31
-29 -65 -72 -75 -96 -10 -23 -48 -72 -84 -108 -36 -36 -65 -70 -65 -76 0 -17
-49 -58 -69 -58 -11 0 -36 -24 -60 -55 -23 -30 -37 -55 -32 -55 6 0 -6 -17
-27 -37 -20 -21 -36 -41 -35 -45 2 -4 -3 -8 -10 -8 -14 0 -70 -57 -73 -75 -2
-12 -39 -89 -60 -125 -8 -14 -12 -35 -9 -47 3 -12 -1 -37 -9 -55 -8 -18 -19
-53 -26 -78 -18 -72 -32 -115 -39 -120 -7 -6 -71 -238 -71 -257 0 -7 -4 -13
-8 -13 -10 0 -29 -108 -42 -234 -6 -55 -19 -130 -30 -168 -27 -88 -39 -399
-21 -528 12 -82 48 -210 90 -315 10 -27 34 -86 51 -130 18 -44 34 -90 37 -102
3 -13 9 -23 14 -23 5 0 9 -9 9 -20 0 -11 15 -48 34 -82 18 -35 37 -78 41 -97
4 -19 18 -57 31 -85 13 -28 24 -63 24 -79 0 -15 4 -35 9 -45 15 -27 41 -153
39 -190 0 -19 5 -37 12 -42 7 -4 10 -14 8 -21 -8 -23 30 -101 66 -135 26 -25
32 -39 29 -58 -4 -19 -1 -26 10 -26 11 0 14 -8 11 -32 -8 -53 -25 -78 -52 -78
-14 0 -22 -3 -19 -7 4 -3 0 -15 -10 -25 -14 -15 -14 -22 -3 -42 7 -13 10 -29
6 -34 -3 -6 -1 -22 6 -37 10 -22 13 -23 20 -10 5 8 13 13 19 10 5 -4 9 5 9 19
0 18 6 27 23 30 26 6 56 9 78 7 22 -1 34 -48 17 -69 -7 -9 -8 -13 -2 -9 7 4
14 -3 16 -18 3 -13 2 -26 -3 -27 -4 -2 -8 -64 -10 -138 -1 -74 -6 -140 -10
-145 -14 -18 -36 -143 -38 -213 -1 -37 -9 -86 -17 -110 -7 -23 -14 -52 -14
-62 0 -11 -4 -21 -10 -21 -5 -1 -16 -2 -22 -3 -17 -3 -48 24 -48 40 0 7 -9 16
-20 19 -14 4 -20 15 -20 36 0 39 0 41 -12 64 -6 10 -12 26 -13 35 -1 8 -5 34
-10 58 -6 35 -10 40 -22 31 -13 -11 -12 -43 2 -147 0 -7 7 -18 13 -24 7 -7 12
-20 12 -31 0 -12 4 -16 13 -11 8 6 8 3 -1 -9 -19 -23 -8 -87 29 -164 16 -34
29 -66 29 -71 0 -5 9 -12 20 -15 29 -7 37 -37 15 -53 -10 -8 -14 -14 -8 -14
11 0 22 -41 26 -97 1 -18 14 -45 32 -65 17 -18 30 -37 31 -43 5 -59 41 -175
54 -175 4 0 11 -15 15 -32 6 -31 7 -32 15 -10 5 12 12 22 15 22 4 0 3 -5 0
-10 -9 -15 41 -120 57 -120 8 0 20 -16 26 -35 l13 -34 21 21 c21 21 22 21 29
2 7 -17 8 -17 8 -1 1 10 5 16 10 13 14 -9 4 40 -14 67 -9 14 -23 28 -31 31 -9
3 -12 11 -8 18 4 7 4 10 -1 6 -4 -4 -29 14 -56 41 -55 56 -73 105 -71 199 2
51 -2 70 -19 94 -12 16 -23 27 -26 25 -10 -11 -55 45 -58 71 -1 16 -12 39 -23
50 -21 21 -30 71 -16 85 4 3 16 2 26 -4 14 -8 17 -14 9 -22 -7 -7 -5 -14 7
-24 14 -11 14 -12 1 -8 -9 4 -16 0 -16 -8 0 -9 7 -12 19 -9 10 2 18 -1 18 -7
0 -6 13 -11 29 -11 21 0 38 10 62 37 18 21 30 30 26 21 -4 -12 -2 -15 8 -12 8
3 13 11 12 17 -1 7 12 13 29 15 44 4 58 -18 59 -94 0 -35 4 -64 8 -64 5 0 7
-20 6 -45 -3 -37 2 -50 26 -77 17 -18 30 -35 31 -38 3 -18 17 -39 24 -35 4 2
16 -7 26 -20 10 -14 26 -25 34 -26 9 0 10 -2 3 -5 -7 -3 -9 -12 -6 -20 7 -19
23 -18 23 1 0 8 6 16 13 16 6 1 17 2 22 4 6 1 20 3 33 3 12 1 22 8 22 16 0 8
7 16 15 20 9 3 15 18 15 36 0 20 -5 30 -15 30 -8 0 -15 4 -15 8 0 5 -15 16
-34 25 -38 18 -96 94 -96 126 0 12 -4 21 -8 21 -11 0 -8 27 7 63 7 19 15 26
23 21 10 -6 10 -4 2 7 -16 21 -18 99 -3 99 7 0 9 3 6 6 -7 7 30 44 45 44 4 0
8 7 8 16 0 8 5 12 10 9 8 -5 13 16 9 41 -2 13 86 84 99 79 7 -3 20 2 29 10 22
22 36 8 28 -29 -3 -17 -8 -66 -11 -109 -4 -80 11 -127 41 -127 7 0 33 -20 57
-45 25 -25 50 -45 57 -45 6 0 10 -3 9 -7 0 -5 2 -17 7 -28 4 -11 14 -35 21
-52 7 -18 20 -33 28 -33 9 0 16 3 16 6 0 12 -34 80 -49 98 -15 17 -24 76 -11
76 3 0 12 16 19 37 14 37 72 103 91 103 14 0 74 -61 84 -85 4 -11 7 -58 6
-105 -3 -96 -8 -221 -9 -232 -1 -11 -83 -1 -90 10 -4 6 -19 5 -41 -4 -37 -15
-68 -58 -62 -85 6 -33 84 -39 135 -10 34 19 34 19 51 0 9 -11 18 -33 20 -49 2
-15 14 -48 28 -72 14 -24 23 -49 21 -55 -3 -7 0 -13 6 -13 6 0 11 -7 11 -16 0
-9 16 -45 36 -80 39 -70 51 -131 33 -166 -7 -13 -13 -42 -14 -66 -2 -50 -8
-56 -87 -79 -41 -12 -58 -21 -58 -33 0 -16 55 -70 72 -70 4 0 8 -8 8 -17 0
-18 56 -63 77 -63 5 0 22 -11 37 -25 23 -21 25 -27 14 -44 -10 -17 -9 -23 6
-40 11 -12 26 -21 35 -21 14 0 14 -2 1 -10 -12 -8 -10 -10 8 -10 16 0 21 4 16
13 -5 8 -2 7 9 -2 10 -8 15 -16 12 -19 -3 -3 0 -11 6 -19 9 -10 4 -13 -26 -13
-36 0 -37 -1 -31 -27 9 -35 14 -64 15 -80 1 -9 18 -13 52 -13 31 0 48 4 44 10
-3 6 -1 10 5 10 6 0 8 5 5 10 -4 6 17 10 54 10 47 0 61 -3 61 -14 0 -11 -14
-16 -47 -19 l-48 -3 48 -2 47 -2 0 -41 c0 -22 5 -49 10 -60 8 -13 7 -19 0 -19
-7 0 -10 -6 -7 -12 2 -7 11 -12 18 -10 8 1 5 -5 -6 -13 -11 -9 -26 -13 -35
-10 -11 4 -10 1 3 -9 21 -16 22 -26 3 -26 -9 0 -13 -9 -11 -25 1 -14 -2 -28
-6 -31 -17 -10 -10 -44 9 -44 15 0 15 2 2 11 -11 7 -11 9 -1 7 16 -4 38 -66
43 -117 2 -26 -1 -37 -13 -39 -27 -5 -69 17 -81 43 -6 13 -19 27 -30 30 -10 4
-18 15 -18 26 0 13 -7 19 -21 19 -16 0 -19 4 -14 21 5 15 4 19 -4 15 -6 -4
-11 -3 -11 3 0 7 -8 7 -25 -1 -22 -10 -24 -16 -21 -52 3 -23 7 -48 9 -56 3 -8
8 -28 12 -43 4 -20 10 -27 20 -23 11 4 15 -2 15 -22 0 -15 8 -58 16 -97 9 -38
20 -97 25 -130 12 -95 15 -107 44 -168 14 -33 24 -61 21 -65 -3 -3 -2 -10 3
-16 12 -14 -47 -95 -69 -96 -9 0 -20 -4 -25 -9 -19 -19 -105 -60 -105 -51 0 6
-6 10 -12 10 -7 0 -33 14 -57 30 -25 17 -52 28 -65 26 -11 -3 -33 -5 -47 -5
-14 -1 -39 -12 -55 -26 l-29 -25 -20 24 c-20 24 -20 24 -70 7 -28 -9 -75 -30
-106 -48 -31 -17 -74 -36 -97 -42 -42 -12 -60 -27 -47 -39 17 -17 153 2 207
29 24 12 28 11 28 -7 0 -9 -10 -25 -22 -35 -11 -11 -18 -19 -15 -19 4 0 -1 -9
-10 -19 -11 -13 -41 -24 -87 -32 -59 -11 -77 -19 -106 -47 -29 -29 -37 -33
-53 -22 -11 6 -44 14 -73 17 -46 5 -54 3 -54 -11 0 -18 -15 -22 -25 -6 -5 8
-11 7 -21 -1 -10 -8 -12 -15 -4 -23 13 -13 13 -26 -1 -26 -5 0 -7 5 -4 10 4 6
-10 -1 -31 -15 -47 -32 -53 -31 -52 4 2 49 -9 54 -55 26 -23 -14 -41 -30 -39
-36 1 -6 -2 -8 -8 -4 -5 3 -16 3 -22 -2 -7 -4 -25 -6 -40 -4 -16 1 -28 -2 -28
-8 0 -6 -4 -11 -10 -11 -6 0 -19 -9 -30 -20 -11 -11 -15 -20 -8 -20 6 0 4 -7
-5 -18 -10 -10 -14 -22 -10 -25 3 -4 0 -7 -8 -7 -8 0 -26 -11 -39 -25 -84 -86
-95 -92 -161 -94 -29 -1 -38 -6 -42 -23 -7 -25 3 -34 53 -48 33 -9 72 -48 97
-95 6 -11 14 -60 18 -110 3 -49 13 -118 21 -153 8 -35 14 -78 14 -97 0 -19 4
-36 9 -39 4 -3 14 -33 20 -66 7 -33 32 -106 56 -162 36 -85 44 -118 50 -193 8
-102 24 -172 66 -295 39 -111 68 -212 80 -280 5 -30 14 -67 20 -81 13 -34 58
-77 84 -80 26 -3 114 10 140 21 24 10 100 29 135 33 37 5 120 46 127 62 3 8
16 15 28 15 13 0 25 5 27 11 2 7 24 13 48 15 89 7 216 25 245 35 95 33 122 42
137 50 10 5 27 9 38 9 11 0 20 5 20 10 0 6 7 10 15 10 17 0 20 31 4 47 -9 9
-29 116 -49 263 -4 36 -13 79 -18 95 -5 17 -15 55 -22 85 -7 30 -17 60 -22 66
-5 7 -9 68 -10 137 -1 102 2 130 15 151 21 31 21 72 2 106 -17 29 -20 64 -5
55 6 -3 10 -1 10 4 0 6 -6 11 -12 11 -9 1 -8 5 3 13 18 14 21 49 5 59 -6 4 0
8 14 8 20 0 22 2 10 10 -12 8 -10 10 8 10 21 0 22 1 8 16 -18 17 -20 30 -7 38
5 3 7 15 4 26 -3 11 0 20 6 20 6 0 11 -9 11 -20 0 -11 4 -20 9 -20 6 0 8 9 6
20 -2 11 1 20 6 20 6 0 17 6 25 14 11 11 11 16 1 19 -9 4 -9 6 1 6 6 1 12 7
12 15 0 15 47 28 52 15 2 -5 14 -10 28 -12 20 -3 24 -9 22 -29 -6 -47 74 -64
177 -38 24 6 60 9 80 7 36 -3 36 -3 37 35 0 22 5 42 11 46 13 9 15 72 2 72 -6
0 -7 5 -4 10 4 6 2 16 -3 23 -6 7 -13 39 -16 71 -3 33 -10 62 -15 65 -5 3 -11
33 -15 66 -8 86 -17 138 -27 156 -24 46 -18 187 8 182 6 -1 8 9 5 22 -2 13 -9
23 -15 22 -8 -1 -10 19 -8 62 2 63 2 65 -35 96 -26 23 -38 42 -40 64 l-2 31
54 0 c61 0 157 -29 221 -66 23 -13 49 -24 59 -24 9 0 32 -11 50 -25 18 -14 38
-25 44 -25 7 0 10 -7 6 -15 -3 -10 1 -15 12 -16 10 0 12 -3 5 -6 -14 -5 -18
-25 -5 -21 12 4 126 -44 147 -62 25 -22 80 -50 97 -50 7 0 33 -14 57 -30 24
-17 50 -30 58 -30 7 0 32 -12 56 -27 23 -15 72 -42 109 -59 36 -18 76 -42 88
-54 12 -12 42 -31 68 -42 54 -24 164 -50 156 -37 -3 5 3 9 13 10 11 0 13 3 5
6 -7 3 -21 22 -32 44 -13 25 -35 46 -61 59 -44 23 -155 132 -165 162 -3 11 -8
17 -10 15 -3 -3 -18 8 -34 24 -25 25 -40 32 -66 28 -4 0 -10 4 -13 9 -3 6 -15
12 -26 14 -41 7 -55 31 -56 100 -1 63 -2 65 -35 83 -19 10 -34 22 -34 26 0 5
-16 15 -35 23 -19 8 -35 19 -35 24 0 16 -52 62 -70 62 -43 0 -106 43 -193 131
-54 55 -99 92 -109 91 -9 -2 -19 2 -23 8 -3 6 3 10 17 11 13 0 17 3 10 6 -6 2
-9 9 -6 15 4 6 -3 5 -15 -2 -24 -12 -52 1 -48 23 1 7 -4 11 -11 9 -6 -1 -11 1
-10 5 0 5 -6 24 -15 44 -9 19 -19 47 -22 62 -4 14 -15 29 -26 32 -15 5 -16 11
-9 30 6 16 6 27 -1 31 -6 3 -8 12 -5 20 3 7 -2 20 -10 29 -9 8 -12 15 -7 15 4
0 0 5 -9 11 -10 5 -18 17 -18 25 0 8 -4 13 -9 10 -5 -3 -14 1 -21 9 -13 15
-35 10 -25 -6 4 -5 -1 -9 -9 -9 -9 0 -16 9 -16 20 0 14 -7 20 -23 20 -20 0
-22 4 -19 40 2 22 8 40 12 40 4 0 10 9 13 20 3 13 0 20 -9 20 -8 0 -11 6 -8
15 3 8 -1 22 -10 30 -20 21 -35 74 -31 116 2 19 5 62 7 96 2 39 7 63 15 63 12
0 11 12 -4 50 -8 20 -7 26 6 32 10 4 11 7 3 7 -7 1 -10 6 -7 11 4 6 0 22 -9
35 -18 27 -23 209 -6 235 6 9 5 17 -3 22 -9 6 -9 8 1 8 6 0 12 9 12 20 0 11 5
20 11 20 17 0 6 150 -11 160 -11 7 -11 12 -1 23 24 29 32 147 11 172 -7 8 -10
15 -6 15 4 0 -3 18 -14 40 -11 22 -27 40 -35 40 -8 0 -15 6 -15 14 0 8 -10 16
-22 18 -13 2 -23 8 -23 13 -2 22 -17 55 -26 55 -6 0 -6 7 1 19 5 11 11 31 12
45 1 15 6 26 10 26 4 0 8 18 8 40 0 32 -4 40 -18 40 -25 0 -50 30 -46 55 3 11
6 34 8 50 2 17 4 36 5 43 1 16 38 16 44 0 3 -7 6 3 6 23 1 34 30 77 44 63 3
-3 9 15 12 40 4 25 12 46 17 46 6 0 8 14 4 34 -9 47 4 73 44 94 33 16 35 20
35 67 0 42 -3 50 -17 47 -10 -2 -18 1 -18 5 0 5 14 9 30 9 17 1 30 -2 30 -7 0
-5 7 -9 16 -9 9 0 18 -9 21 -20 3 -11 9 -18 13 -15 4 3 20 -7 34 -20 36 -33
116 -37 116 -5 0 11 4 20 9 20 10 0 9 26 -2 36 -11 11 -8 44 3 44 6 0 10 -6
10 -14 0 -7 16 -30 35 -51 36 -38 98 -148 89 -158 -3 -2 9 -25 26 -51 26 -38
37 -46 62 -46 23 0 29 4 24 15 -6 16 9 21 19 6 19 -32 145 -77 145 -52 0 4 26
2 58 -6 31 -8 68 -17 82 -20 14 -2 32 -7 40 -10 22 -8 51 -14 83 -16 15 -1 27
-5 27 -9 0 -5 9 -8 19 -8 11 0 21 -4 23 -10 7 -21 62 -22 85 -2 17 14 44 21
105 25 124 9 161 29 213 117 26 43 46 92 50 119 3 25 22 71 41 103 19 31 34
61 34 67 0 6 5 11 10 11 6 0 10 -9 10 -20 0 -15 46 -100 54 -100 1 0 16 4 34
9 25 8 32 7 32 -5 0 -15 35 -19 45 -5 6 10 17 9 100 -10 28 -6 70 -12 95 -13
48 -2 74 -12 65 -25 -2 -5 13 -23 35 -42 21 -18 37 -37 34 -41 -3 -4 4 -16 16
-28 21 -21 27 -35 10 -25 -5 3 -10 2 -10 -4 0 -18 12 -41 22 -41 6 0 8 7 5 14
-4 10 -1 13 7 10 9 -3 13 11 16 53 6 112 -5 205 -29 243 -19 30 -92 106 -90
94 4 -23 -3 -34 -21 -34 -11 0 -23 -6 -26 -14 -6 -17 -21 -15 -51 4 -25 16
-30 36 -10 43 6 3 1 5 -13 4 -14 0 -30 -4 -36 -8 -6 -5 -17 0 -27 11 -9 11
-12 20 -6 20 5 0 7 5 4 10 -3 6 -17 10 -30 10 -20 0 -23 5 -27 46 -3 48 5 63
25 45 10 -7 13 -3 15 17 2 28 16 47 34 47 6 0 13 10 14 23 3 14 -1 22 -11 22
-8 0 -14 5 -12 12 2 12 -4 14 -43 17 -28 2 -24 51 5 51 16 0 17 2 5 10 -10 6
-11 10 -2 10 6 0 12 5 12 10 0 6 -19 10 -42 10 -40 0 -41 0 -23 20 10 11 23
17 29 13 8 -4 8 -3 0 6 -6 6 -41 15 -79 20 -38 4 -71 13 -73 19 -2 7 -10 12
-18 12 -8 0 -22 9 -31 20 -10 11 -23 20 -30 20 -7 0 -13 4 -13 9 0 5 -27 12
-60 16 -33 4 -60 11 -60 16 0 5 -17 9 -37 7 -22 -1 -38 3 -41 10 -3 10 -7 10
-18 2 -15 -13 -38 -4 -29 11 9 14 -19 11 -34 -3 -11 -10 -13 -10 -7 0 5 8 -1
12 -18 12 -29 0 -106 37 -106 52 0 5 -4 7 -9 4 -12 -8 -62 19 -53 29 4 4 -3 2
-16 -4 -20 -11 -24 -10 -29 7 -4 16 -17 21 -64 26 -32 4 -61 12 -65 18 -5 7
-2 8 6 3 8 -5 11 -4 7 2 -3 5 -32 11 -63 12 -32 1 -61 4 -66 7 -4 3 -5 -2 -2
-10 8 -20 -10 -21 -26 -1 -7 8 -21 15 -31 15 -11 0 -19 5 -19 10 0 6 8 10 19
10 10 0 21 9 24 19 4 15 -1 21 -22 24 -17 3 -11 5 17 6 23 0 42 6 42 11 0 6
10 10 21 10 18 0 21 5 17 30 -3 17 0 34 5 37 6 3 7 2 4 -3 -3 -6 4 -11 15 -11
21 -2 21 -2 -1 13 -29 21 -26 74 4 74 15 0 17 2 6 9 -11 7 -11 10 0 15 10 4
11 8 3 11 -17 8 -5 47 12 41 8 -3 13 -2 13 2 -3 19 3 33 24 52 12 12 23 25 23
31 1 5 2 15 3 22 1 18 36 58 44 51 3 -3 4 1 3 10 -1 8 -6 19 -10 23 -4 4 -6 2
-4 -6 2 -7 -3 -16 -9 -18 -7 -3 -13 2 -13 10 0 9 -2 21 -3 29 -2 7 -2 10 0 6
10 -17 43 -8 43 12 0 11 -7 20 -15 20 -13 0 -14 4 -5 20 8 16 8 20 -3 20 -22
0 -41 27 -25 33 7 3 3 6 -8 6 -20 1 -22 6 -20 54 3 66 8 75 46 69 30 -4 36 4
31 46 -1 6 7 12 19 12 11 0 20 -4 20 -10 0 -5 9 -10 20 -10 11 0 20 4 20 8 0
5 6 9 13 10 41 5 54 9 72 20 14 9 16 15 8 18 -7 3 -13 19 -13 35 0 22 -5 29
-20 29 -11 0 -20 7 -20 15 0 8 -8 15 -17 16 -15 0 -15 2 2 8 11 5 23 7 27 4 5
-2 4 7 -2 21 -7 19 -6 26 3 26 8 0 7 3 -2 9 -12 8 -9 11 12 16 15 4 27 13 27
21 0 8 7 15 15 15 8 1 20 3 25 4 6 1 27 3 48 4 44 1 62 26 62 86 0 21 5 35 13
35 8 0 8 3 1 8 -6 4 -13 14 -16 23 -5 13 2 18 30 23 20 3 49 6 65 6 43 0 31
18 -15 23 -24 2 -4 2 45 -1 60 -3 92 0 102 8 8 7 15 9 16 4 0 -5 4 1 9 13 5
12 7 32 4 45 -15 69 -14 139 4 172 17 32 19 33 30 15 7 -10 12 -26 12 -35 0
-21 39 -56 54 -47 6 3 8 3 4 -2 -9 -10 16 -59 44 -85 16 -15 30 -19 50 -15 20
5 28 3 28 -7 0 -22 36 -37 74 -31 31 5 39 1 62 -26 14 -17 30 -28 35 -25 22
13 65 -8 83 -41 20 -37 68 -65 111 -65 17 0 40 -13 66 -39 26 -25 47 -37 62
-36 32 4 33 4 17 15 -13 9 -13 10 0 10 9 1 6 5 -7 10 -29 12 -62 66 -56 90 3
10 -3 31 -13 46 -27 42 -98 119 -107 116 -5 -1 -6 1 -3 6 3 5 -1 28 -8 53 -8
27 -10 53 -5 66 6 16 5 22 -4 20 -8 -1 -11 9 -10 28 4 49 6 55 15 55 5 0 7 4
3 10 -3 5 0 18 6 29 12 19 13 18 30 -3 15 -18 21 -19 38 -8 11 6 28 12 37 12
9 0 22 17 32 40 12 31 20 40 35 38 11 -2 22 -9 25 -17 3 -9 0 -11 -9 -6 -11 6
-12 5 -1 -6 13 -14 17 -50 5 -48 -27 4 -39 -3 -38 -23 1 -16 8 -22 23 -21 12
0 31 1 43 2 12 1 17 5 13 12 -4 8 0 8 15 0 11 -7 21 -8 21 -4 0 4 7 -2 15 -13
23 -30 19 -69 -10 -88 -31 -20 -32 -46 -3 -70 l22 -19 -22 -10 c-51 -23 -12
-58 109 -98 64 -21 73 -33 72 -93 -1 -58 -24 -94 -54 -88 -8 1 -26 -9 -39 -23
-19 -21 -21 -25 -7 -25 9 0 17 -8 17 -17 0 -10 6 -25 13 -33 15 -19 74 -50 93
-50 8 0 14 -5 14 -11 0 -5 4 -8 9 -5 5 4 8 -2 6 -11 -2 -10 -4 -21 -4 -24 -1
-7 -53 -33 -63 -31 -4 1 -16 -11 -27 -27 l-20 -28 22 -10 c24 -11 61 -2 87 22
9 8 36 21 60 30 52 18 97 8 202 -46 20 -10 46 -19 56 -19 11 0 22 -7 26 -15 3
-8 10 -15 16 -15 14 0 34 -20 43 -42 6 -17 10 -17 64 3 89 32 113 43 113 52 0
11 53 56 66 57 7 0 24 17 40 38 15 20 35 42 44 49 21 17 66 16 84 -2 8 -8 19
-15 24 -15 6 0 27 -23 48 -51 22 -28 51 -57 66 -65 15 -8 30 -26 33 -39 3 -14
7 -37 10 -51 3 -14 23 -42 43 -61 20 -20 36 -40 34 -45 -1 -5 4 -19 13 -31 8
-12 15 -18 15 -13 0 4 18 -15 40 -43 22 -28 44 -51 49 -51 5 0 8 -7 7 -16 -1
-9 8 -28 20 -41 13 -14 23 -28 22 -32 -2 -19 5 -28 32 -44 34 -20 76 -92 60
-102 -6 -3 -10 -15 -10 -27 0 -11 -8 -32 -18 -46 -10 -15 -24 -42 -31 -59 -8
-18 -17 -33 -21 -33 -7 0 -10 -14 -13 -70 l-2 -35 -48 2 c-38 2 -49 -2 -58
-18 -6 -11 -8 -27 -5 -34 3 -9 0 -12 -10 -8 -21 8 -18 -55 5 -94 16 -26 17
-33 6 -43 -7 -6 -17 -10 -21 -8 -5 1 -25 -4 -44 -11 -19 -7 -52 -14 -73 -16
-25 -1 -47 -10 -66 -29 -23 -22 -35 -27 -62 -22 -20 3 -40 -1 -53 -10 -11 -8
-31 -14 -43 -14 -13 0 -23 -6 -23 -14 0 -8 -10 -16 -22 -18 -15 -2 -24 -10
-24 -23 -1 -11 -3 -24 -4 -30 -1 -5 -2 -13 -1 -17 2 -12 -17 -10 -47 5 -34 17
-68 16 -64 -1 2 -10 -2 -10 -18 -2 -13 7 -20 7 -20 0 0 -5 -9 -10 -20 -10 -11
0 -20 -4 -20 -10 0 -5 -14 -10 -30 -10 -18 0 -37 -8 -47 -20 -10 -11 -23 -20
-30 -20 -7 0 -13 -5 -13 -12 0 -6 -7 -20 -17 -30 -15 -17 -15 -18 0 -18 10 0
17 -4 17 -10 0 -5 9 -10 19 -10 10 0 22 -7 25 -16 4 -10 2 -13 -7 -8 -6 4 -3
-3 8 -15 11 -13 15 -25 10 -29 -6 -4 -12 -20 -14 -37 -2 -25 -23 -52 -33 -44
-10 8 -47 -25 -50 -43 -2 -13 -8 -23 -15 -23 -21 0 -19 4 -44 -122 -8 -38 -21
-71 -36 -87 -20 -22 -24 -38 -27 -108 -3 -79 -2 -83 23 -103 14 -11 29 -19 34
-17 5 1 6 -1 3 -6 -2 -4 -1 -25 3 -45 6 -24 5 -38 -3 -41 -8 -3 -7 -7 2 -14 9
-6 13 -24 11 -51 -3 -43 16 -68 52 -68 33 1 79 -25 79 -44 0 -10 5 -21 10 -24
6 -4 8 -10 5 -15 -9 -15 23 -80 39 -80 9 0 16 -6 16 -12 0 -10 3 -9 9 1 10 15
71 6 83 -13 4 -6 7 -2 7 9 -1 26 5 47 16 65 12 19 15 39 6 44 -3 2 -6 25 -6
49 0 25 -2 45 -5 44 -3 -1 -30 22 -59 51 -58 58 -78 103 -55 123 8 6 14 22 14
35 0 17 6 24 20 24 11 0 20 7 20 15 0 8 8 15 18 15 16 1 16 1 0 11 -10 5 -18
17 -18 25 0 8 -9 32 -20 54 -30 58 -26 82 15 104 35 19 36 19 62 0 15 -11 31
-29 37 -40 6 -10 14 -22 19 -25 4 -3 9 -25 12 -50 3 -24 8 -53 10 -65 5 -24
62 -87 67 -74 2 5 23 5 48 -1 25 -6 59 -8 76 -6 36 6 101 -21 127 -53 17 -20
24 -22 85 -16 37 4 81 6 97 6 74 0 90 1 98 9 5 5 28 7 50 4 32 -3 38 -2 27 6
-13 9 -13 11 0 11 9 0 22 -6 29 -12 8 -8 11 -8 8 -2 -4 7 3 15 16 19 l22 7
-25 8 c-21 7 -22 8 -5 9 11 1 36 15 55 31 19 17 42 30 52 30 9 0 21 6 25 13 9
16 54 33 104 42 42 6 62 25 53 49 -5 12 -2 15 9 10 31 -12 34 63 8 230 -6 38
-13 71 -15 74 -3 2 1 17 10 33 8 16 12 29 8 29 -4 0 -2 6 3 13 6 6 10 36 9 66
-1 52 0 54 36 72 52 27 122 32 147 11 24 -20 27 -41 17 -103 -5 -29 -4 -54 3
-67 18 -33 22 -92 6 -92 -11 0 -10 -6 2 -31 9 -17 17 -47 20 -68 2 -20 6 -49
9 -66 3 -16 5 -40 5 -52 0 -13 4 -23 9 -23 6 0 10 13 10 29 0 16 8 46 17 67
22 51 26 70 27 122 1 23 4 42 9 42 4 0 7 7 7 16 0 17 57 44 93 44 13 0 28 -5
35 -12 8 -8 12 -9 12 -1 0 6 9 9 22 5 14 -3 19 -2 14 6 -4 7 -1 12 6 12 9 0 9
3 -2 10 -13 8 -11 11 7 16 13 4 20 10 17 15 -3 5 0 9 5 9 13 0 10 22 -4 32 -6
5 -5 8 3 8 24 0 11 19 -15 22 -24 3 -28 8 -30 39 -3 41 19 71 39 51 8 -8 15
-7 25 4 8 8 18 12 22 9 5 -2 4 19 -1 47 -5 29 -7 63 -3 77 10 42 13 91 5 91
-4 0 -14 21 -23 46 -15 46 -14 49 18 139 18 50 43 108 54 129 12 20 21 42 21
50 0 7 11 35 25 62 17 34 25 65 25 102 0 52 46 228 74 280 8 15 23 56 34 92
21 70 119 238 163 280 15 14 52 45 83 70 55 44 65 60 129 200 37 81 40 117 34
390 -1 25 2 60 5 79 7 36 -7 110 -48 246 -35 119 -43 164 -44 230 0 48 -7 75
-34 132 -19 40 -42 103 -51 140 -18 77 -52 159 -77 186 -9 11 -19 30 -23 44
-6 24 -39 77 -96 153 -15 19 -30 46 -34 60 -4 14 -20 46 -36 71 -16 25 -29 50
-29 56 0 5 -16 24 -35 42 -19 17 -35 35 -35 40 0 4 -12 21 -26 37 -14 16 -41
52 -60 81 -19 28 -47 59 -63 69 -15 9 -36 31 -46 48 -10 17 -27 40 -37 51 -36
39 -148 184 -148 192 0 5 -8 16 -17 25 -10 9 -29 31 -43 48 -14 18 -42 41 -63
51 -21 11 -42 30 -46 43 -5 12 -26 36 -46 52 -67 53 -127 118 -143 155 -9 22
-34 49 -64 69 -26 18 -48 36 -48 40 0 8 -169 110 -182 110 -4 0 -8 4 -8 8 0 5
-24 19 -52 31 -29 13 -71 31 -93 41 -35 16 -125 44 -132 41 -2 -1 -11 7 -21
17 -36 35 -146 118 -185 140 -22 13 -79 58 -126 100 -88 79 -154 132 -166 132
-4 0 -34 20 -67 45 -33 25 -64 45 -69 45 -6 0 -38 22 -72 48 -35 26 -78 54
-97 62 -19 8 -43 24 -52 36 -10 12 -31 27 -48 34 -16 7 -30 16 -30 19 0 4 -26
15 -57 25 -46 14 -74 32 -133 87 -41 38 -78 69 -82 69 -4 0 -22 14 -40 30 -18
17 -41 30 -52 30 -11 0 -52 11 -91 25 -60 20 -85 24 -153 20 -83 -5 -159 13
-218 52 -23 15 -159 16 -221 3z m397 -3522 c10 -17 16 -36 12 -42 -3 -6 -5
-18 -4 -28 2 -9 -2 -19 -7 -23 -11 -6 -38 50 -46 97 -7 39 20 37 45 -4z m-326
-263 c-4 -8 -11 -12 -18 -8 -6 4 -6 0 2 -9 8 -10 9 -19 4 -22 -6 -3 -13 1 -16
10 -11 29 -6 44 14 44 13 0 18 -5 14 -15z m1012 -64 c-4 -5 -3 -11 2 -13 4 -1
17 -26 29 -54 l20 -50 -26 -33 -26 -32 -43 33 c-45 34 -52 59 -27 92 8 11 15
28 15 37 0 15 9 20 53 28 5 0 6 -3 3 -8z m-1516 -179 c0 -24 -8 -32 -26 -25
-22 8 -17 43 6 43 13 0 20 -7 20 -18z m1884 -17 c26 -5 31 -11 30 -32 -1 -24
-21 -46 -35 -37 -10 6 -30 -22 -27 -37 2 -8 21 -16 43 -19 31 -4 40 -9 40 -24
0 -20 -10 -24 -80 -33 -22 -3 -44 -12 -50 -20 -13 -18 -39 -8 -58 20 -16 25
-16 59 1 80 7 7 9 16 6 20 -3 3 5 21 18 40 17 25 29 33 46 31 17 -3 22 1 23
19 0 12 3 17 6 10 2 -7 19 -15 37 -18z m689 -585 c-7 -25 -29 -26 -35 -2 -4
13 1 18 17 20 18 1 22 -2 18 -18z m-3073 -520 c0 -5 -5 -10 -11 -10 -5 0 -7 5
-4 10 3 6 8 10 11 10 2 0 4 -4 4 -10z m-2127 -374 c19 -13 53 -32 74 -42 37
-17 73 -46 73 -59 0 -11 54 -59 81 -74 15 -7 33 -24 40 -37 7 -14 23 -27 35
-30 13 -3 29 -12 35 -20 7 -8 36 -26 65 -39 55 -25 118 -81 108 -96 -3 -5 0
-9 6 -9 6 0 8 -4 5 -10 -3 -5 -2 -10 2 -10 5 0 10 -12 11 -27 1 -16 7 -29 12
-31 6 -2 10 -17 10 -33 0 -23 -4 -28 -19 -26 -10 2 -26 9 -35 16 -9 7 -16 10
-16 5 0 -5 -7 -1 -14 9 -10 13 -32 20 -73 23 -32 3 -75 12 -95 20 l-38 14 0
-34 c0 -19 5 -38 10 -41 6 -3 10 -17 10 -30 0 -29 37 -88 81 -131 l32 -32 -24
-8 c-13 -4 -31 -8 -39 -9 -9 0 -27 -10 -40 -23 -14 -13 -44 -32 -67 -43 -24
-11 -43 -23 -43 -27 0 -4 -18 -16 -40 -26 -22 -10 -37 -22 -35 -27 8 -13 -6
-39 -18 -32 -6 3 -26 -11 -45 -33 -19 -21 -31 -33 -27 -26 5 9 1 13 -11 12
-57 -6 -64 -2 -61 39 2 21 11 50 20 64 9 15 17 31 17 37 0 5 8 10 18 10 15 0
15 2 2 10 -13 9 -13 12 3 21 9 5 17 21 17 34 0 14 4 25 9 25 5 0 13 9 16 21 4
12 17 36 30 55 13 19 25 39 27 44 2 6 23 14 48 18 41 7 44 10 45 37 0 23 4 30
18 29 17 -2 17 -1 1 17 -9 10 -22 19 -28 19 -7 0 -12 18 -12 43 -2 76 -17 192
-25 195 -5 2 -9 10 -9 18 0 8 -5 14 -11 14 -6 0 -9 7 -5 15 9 23 -3 43 -23 38
-11 -3 -24 3 -32 15 -14 20 -72 54 -86 50 -25 -6 -97 38 -87 54 3 4 -4 8 -15
8 -11 0 -22 4 -26 10 -3 5 -12 7 -20 3 -9 -3 -15 1 -15 10 0 10 10 15 33 16
17 0 46 4 62 10 42 13 38 14 78 -13z m2427 -136 c4 -6 25 -11 47 -13 23 -1 39
-5 37 -8 -4 -7 24 -18 66 -26 13 -2 30 -9 37 -15 7 -6 36 -7 70 -4 48 5 64 2
92 -15 26 -16 32 -25 27 -42 -3 -12 -6 -33 -7 -47 0 -14 -3 -19 -6 -12 -2 6
-19 12 -37 12 -19 0 -45 10 -62 22 -15 13 -24 16 -19 8 8 -13 6 -13 -11 0 -10
8 -22 20 -26 25 -5 6 -8 5 -8 -3 0 -10 -22 -13 -87 -12 -104 1 -123 -1 -123
-11 0 -4 -39 -7 -87 -8 -58 -1 -94 -6 -110 -16 -12 -8 -43 -15 -68 -15 -36 0
-45 4 -46 18 0 13 -3 12 -11 -5 -11 -22 -72 -48 -89 -37 -4 2 -11 -2 -16 -9
-4 -8 -36 -21 -70 -29 -52 -13 -64 -13 -73 -2 -7 7 -20 14 -31 16 -19 3 -19 4
-1 38 10 19 17 41 16 48 -1 6 -2 16 -3 21 0 5 -10 13 -21 16 -11 3 -20 12 -20
20 0 7 -6 15 -12 17 -7 3 -1 12 16 23 23 16 33 17 60 7 39 -14 83 -16 91 -3 3
5 32 8 65 6 45 -3 60 -1 60 9 0 8 17 16 40 20 22 3 40 11 40 17 0 14 272 3
280 -11z m2035 -70 c3 -5 1 -10 -4 -10 -6 0 -11 5 -11 10 0 6 2 10 4 10 3 0 8
-4 11 -10z m-1449 -74 c8 -8 14 -20 14 -26 0 -6 8 -13 18 -17 21 -8 62 -44 62
-55 0 -5 -12 4 -26 19 -17 19 -27 24 -31 15 -2 -6 -10 -9 -16 -5 -6 4 -24 7
-39 8 -31 2 -52 15 -23 15 14 0 16 6 12 30 -7 33 5 39 29 16z m-1106 -186 c0
-13 -7 -20 -20 -20 -11 0 -20 -6 -20 -12 0 -19 -20 13 -20 32 0 10 11 17 30
18 24 2 30 -2 30 -18z m-494 -146 c1 -9 0 -13 -4 -10 -3 4 -7 14 -8 22 -1 9 0
13 4 10 3 -4 7 -14 8 -22z m820 -22 c21 -14 34 -51 34 -95 0 -31 5 -47 15 -51
8 -3 15 -13 15 -23 0 -13 -3 -14 -12 -5 -7 7 -22 12 -33 12 -33 0 -95 74 -95
114 0 17 38 56 54 56 6 0 16 -4 22 -8z m3055 -12 c44 0 73 -31 71 -75 -2 -42
-21 -69 -67 -92 -16 -9 -33 -22 -38 -29 -4 -7 -14 -11 -22 -8 -9 4 -15 0 -15
-9 0 -16 -44 -32 -60 -22 -15 10 -12 30 15 91 14 32 25 75 25 99 0 45 11 57
45 50 11 -3 32 -5 46 -5z m-4001 -146 c0 -8 -4 -14 -10 -14 -5 0 -10 9 -10 21
0 11 5 17 10 14 6 -3 10 -13 10 -21z m-23 -59 c8 -22 2 -24 -27 -13 -20 7 -22
11 -10 18 21 14 30 12 37 -5z m43 11 c0 -3 -4 -8 -10 -11 -5 -3 -10 -1 -10 4
0 6 5 11 10 11 6 0 10 -2 10 -4z m3773 -183 c-7 -2 -21 -2 -30 0 -10 3 -4 5
12 5 17 0 24 -2 18 -5z m-526 -220 c-3 -10 -5 -4 -5 12 0 17 2 24 5 18 2 -7 2
-21 0 -30z m-3332 -1263 c-3 -4 1 -11 7 -13 8 -3 6 -6 -4 -6 -12 -1 -18 6 -18
20 0 11 5 17 10 14 6 -4 8 -10 5 -15z m145 -200 c0 -11 -4 -20 -10 -20 -5 0
-10 9 -10 20 0 11 5 20 10 20 6 0 10 -9 10 -20z m185 -169 c3 -5 1 -12 -5 -16
-5 -3 -10 1 -10 9 0 18 6 21 15 7z m-321 -253 c-2 -120 -4 -139 -13 -133 -5 3
-8 38 -5 78 2 39 4 87 4 105 0 18 3 31 8 29 4 -3 7 -38 6 -79z m34 43 c1 -16
-3 -33 -10 -37 -7 -5 -9 -2 -6 8 4 8 2 21 -2 28 -5 8 -6 18 -4 22 10 16 20 7
22 -21z m79 -233 c-3 -7 -5 -2 -5 12 0 14 2 19 5 13 2 -7 2 -19 0 -25z m103
-398 c0 -5 -4 -10 -10 -10 -5 0 -10 5 -10 10 0 6 5 10 10 10 6 0 10 -4 10 -10z
m-700 -20 c5 9 9 8 13 -3 3 -7 1 -20 -4 -28 -6 -10 -9 -11 -9 -1 0 10 -5 10
-20 2 -11 -6 -32 -7 -47 -4 -27 7 -27 7 -4 16 13 4 28 5 33 1 6 -3 8 -1 4 5
-3 5 0 12 6 15 7 2 15 0 17 -6 2 -5 7 -4 11 3z m-676 -309 c7 -11 -49 -25 -64
-16 -6 3 -8 11 -5 16 8 12 62 12 69 0z m963 -123 c-3 -8 -6 -5 -6 6 -1 11 2
17 5 13 3 -3 4 -12 1 -19z m4 -263 c-7 -30 -16 -55 -20 -55 -7 0 -7 46 -1 170
l2 35 16 -47 c13 -40 13 -56 3 -103z"/>
<path d="M7728 10333 c6 -2 18 -2 25 0 6 3 1 5 -13 5 -14 0 -19 -2 -12 -5z"/>
<path d="M9525 11520 c3 -5 12 -7 20 -3 21 7 19 13 -6 13 -11 0 -18 -4 -14
-10z"/>
<path d="M13430 10570 c-9 -6 -10 -10 -3 -10 6 0 15 5 18 10 8 12 4 12 -15 0z"/>
<path d="M10503 10556 c-4 -5 -1 -6 5 -2 7 4 12 1 12 -8 0 -9 -5 -16 -10 -16
-13 0 -9 -32 5 -42 6 -5 5 -8 -3 -8 -10 0 -10 -3 2 -15 31 -32 45 -19 44 45
-1 57 -2 59 -25 58 -14 -2 -27 -7 -30 -12z"/>
<path d="M6768 10425 c-7 -7 9 -116 22 -146 10 -24 10 -24 7 4 -3 15 0 30 4
33 5 3 9 28 9 55 0 34 -4 48 -11 43 -6 -3 -14 -1 -18 5 -4 6 -10 9 -13 6z"/>
<path d="M6798 10243 c6 -2 12 -13 12 -24 0 -10 4 -19 9 -19 4 0 6 11 3 25 -2
15 -11 25 -21 24 -10 0 -11 -2 -3 -6z"/>
<path d="M13111 9403 c0 -21 3 -32 6 -25 2 6 9 12 14 12 6 0 7 -4 4 -10 -3 -5
-1 -10 4 -10 6 0 11 6 11 13 0 6 3 22 6 35 5 19 2 22 -20 22 -24 0 -26 -4 -25
-37z"/>
<path d="M7680 9364 c0 -14 4 -23 10 -19 6 3 10 1 10 -5 0 -19 43 -7 46 13 2
18 -23 37 -50 37 -10 0 -16 -9 -16 -26z"/>
<path d="M8615 9320 c3 -5 10 -10 16 -10 5 0 9 5 9 10 0 6 -7 10 -16 10 -8 0
-12 -4 -9 -10z"/>
<path d="M8615 9291 c-6 -11 13 -26 22 -17 4 3 0 6 -8 6 -11 0 -11 2 1 10 9 6
10 10 3 10 -6 0 -14 -4 -18 -9z"/>
<path d="M11474 9210 c5 -44 13 -80 17 -80 3 0 5 -18 4 -40 -1 -22 2 -43 7
-46 5 -3 6 -19 3 -34 -3 -16 -2 -31 4 -35 6 -3 11 -13 11 -21 0 -9 7 -22 15
-30 12 -13 20 -11 65 12 l51 27 41 -39 c23 -21 37 -33 33 -25 -6 11 -4 13 8 8
36 -14 51 79 19 121 -10 13 -28 24 -40 25 -24 1 -29 12 -9 20 7 3 4 6 -6 6
-10 1 -15 6 -12 11 3 6 1 10 -5 10 -6 0 -8 5 -5 10 3 6 1 10 -5 10 -6 0 -9 4
-6 8 3 5 -3 18 -14 29 -10 12 -16 24 -13 27 4 3 -3 15 -15 26 -12 12 -22 25
-22 30 0 6 -8 10 -17 10 -10 0 -29 9 -43 20 -14 11 -36 20 -50 20 l-25 0 9
-80z m109 3 c-13 -2 -33 -2 -45 0 -13 2 -3 4 22 4 25 0 35 -2 23 -4z"/>
<path d="M7400 9231 c0 -5 -9 -11 -19 -14 -16 -4 -20 -13 -19 -48 0 -24 5 -50
12 -58 8 -12 8 -13 -1 -7 -7 4 -13 2 -13 -3 0 -6 9 -11 19 -11 15 0 19 7 19
33 0 48 1 51 19 36 11 -10 14 -10 9 -1 -4 6 -2 12 3 12 6 0 11 16 11 35 0 28
-4 35 -20 35 -11 0 -20 -4 -20 -9z"/>
<path d="M10736 9197 c-11 -8 -28 -12 -38 -9 -10 2 -18 0 -18 -5 0 -4 -15 -17
-34 -27 -19 -10 -37 -25 -40 -32 -3 -8 -12 -14 -21 -14 -8 0 -15 -6 -15 -12 0
-9 -4 -8 -10 2 -8 13 -10 12 -10 -3 0 -10 -12 -22 -26 -27 -14 -6 -23 -14 -20
-18 3 -5 -1 -9 -9 -9 -20 0 -87 -35 -101 -52 -12 -15 -6 -73 7 -65 5 3 9 1 9
-3 0 -5 17 -8 38 -8 34 1 39 4 61 48 l24 48 129 -5 c154 -7 173 -4 176 31 1
14 -1 30 -5 37 -4 6 -8 18 -10 26 -1 8 -6 16 -11 18 -5 1 -7 14 -4 27 3 18 0
25 -11 25 -8 0 -21 9 -28 21 -12 18 -16 18 -33 6z"/>
<path d="M7331 8984 c-9 -10 -16 -12 -20 -6 -4 7 -12 7 -21 2 -11 -7 -7 -22
23 -80 20 -40 37 -79 37 -87 0 -8 16 -34 35 -58 38 -46 115 -88 181 -101 21
-4 56 -15 77 -24 27 -13 47 -15 65 -9 15 5 55 14 90 21 34 7 62 16 62 21 0 5
16 6 36 2 26 -4 34 -3 29 5 -4 7 2 14 16 18 l24 6 -25 7 c-14 4 -42 7 -62 8
-21 1 -38 4 -38 9 0 4 -26 8 -58 8 -82 2 -166 22 -191 45 -11 11 -21 17 -21
14 0 -3 -10 1 -22 9 -12 9 -40 16 -61 16 -23 0 -36 4 -32 10 3 6 2 10 -3 10
-11 0 -52 108 -52 137 0 13 -9 23 -22 27 -30 8 -31 8 -47 -10z"/>
<path d="M11410 8725 c-35 -13 -32 -17 17 -28 22 -5 36 12 25 30 -5 7 -19 6
-42 -2z"/>
<path d="M11525 8670 c3 -5 17 -10 31 -10 13 0 24 5 24 10 0 6 -14 10 -31 10
-17 0 -28 -4 -24 -10z"/>
<path d="M11132 8610 c-12 -11 -22 -16 -22 -10 0 5 -6 10 -14 10 -9 0 -12 -7
-9 -20 4 -15 14 -20 38 -20 19 0 39 8 50 20 16 17 16 20 2 20 -8 0 -17 5 -19
10 -2 6 -13 2 -26 -10z"/>
<path d="M9865 8230 c-10 -11 -30 -20 -44 -20 -37 0 -107 -72 -87 -89 8 -7 17
-23 20 -37 5 -17 12 -24 21 -20 8 3 15 2 15 -3 0 -5 17 -12 38 -16 20 -4 42
-11 48 -16 6 -5 31 -12 55 -15 59 -8 96 -29 144 -79 22 -23 69 -57 105 -75 36
-18 73 -41 83 -51 10 -10 30 -21 45 -25 15 -3 37 -10 50 -15 13 -5 28 -6 34
-3 7 5 8 2 3 -6 -6 -10 -4 -12 9 -7 9 4 15 3 12 -2 -10 -16 97 -56 151 -56 28
0 51 4 50 9 -4 20 107 25 231 11 39 -4 72 -12 72 -16 0 -5 7 -9 15 -9 8 0 15
5 15 11 0 8 6 7 17 -2 15 -12 16 -12 8 1 -8 13 -7 13 8 1 9 -7 17 -10 17 -6 0
4 8 1 17 -6 15 -12 16 -12 8 1 -8 13 -6 13 8 2 9 -8 21 -11 26 -8 5 4 13 2 16
-4 5 -8 11 -8 21 0 10 9 23 4 59 -25 27 -22 42 -42 38 -49 -4 -6 -8 -15 -8
-21 0 -5 -33 -11 -72 -13 -63 -2 -73 -5 -73 -21 0 -25 23 -33 98 -36 35 -1 68
-7 74 -13 18 -18 78 -15 78 3 0 8 10 24 23 36 34 32 137 99 152 99 19 0 85 32
85 41 0 13 168 178 174 171 4 -3 9 3 12 14 3 12 24 32 46 45 22 13 47 32 56
42 9 9 21 17 27 17 6 0 16 5 22 11 21 21 116 49 165 49 26 0 48 5 48 10 0 6 6
10 13 10 13 0 34 22 53 56 16 29 -1 83 -29 88 -36 8 -176 13 -182 8 -3 -3 -13
-7 -23 -8 -27 -4 -84 -28 -114 -47 -15 -10 -35 -17 -45 -16 -10 2 -31 0 -48
-4 -16 -3 -90 -9 -162 -12 -73 -3 -144 -10 -157 -15 -14 -5 -40 -7 -58 -4 -77
13 -130 15 -141 6 -17 -14 -105 -22 -247 -24 -114 -1 -128 1 -164 23 -22 13
-53 24 -70 25 -17 1 -53 5 -81 8 -35 3 -43 2 -25 -4 17 -6 -13 -8 -90 -8 -63
0 -120 4 -125 9 -6 4 -76 10 -155 12 -80 1 -154 6 -165 10 -11 3 -36 11 -55
16 -19 5 -53 16 -75 24 -36 14 -37 15 -15 19 23 5 23 6 -8 13 -24 5 -30 10
-20 16 9 6 7 9 -8 9 -11 0 -29 -9 -39 -20z m713 -228 c-7 -38 -50 -57 -62 -26
-11 29 -6 36 19 32 17 -4 25 -1 25 9 0 8 5 11 10 8 6 -4 9 -14 8 -23z m285
-37 c43 -18 66 -73 38 -89 -9 -5 -21 -15 -27 -21 -12 -12 -66 -12 -121 0 -27
6 -34 13 -39 43 -6 31 -3 39 20 59 32 27 77 30 129 8z m257 -65 c0 -11 -2 -20
-4 -20 -2 0 -6 9 -9 20 -3 11 -1 20 4 20 5 0 9 -9 9 -20z"/>
<path d="M8246 8223 c-6 -14 -5 -15 5 -6 7 7 10 15 7 18 -3 3 -9 -2 -12 -12z"/>
<path d="M8306 8225 c4 -8 8 -15 10 -15 2 0 4 7 4 15 0 8 -4 15 -10 15 -5 0
-7 -7 -4 -15z"/>
<path d="M8400 8201 c0 -5 7 -11 15 -15 9 -3 15 0 15 9 0 8 -7 15 -15 15 -8 0
-15 -4 -15 -9z"/>
<path d="M8481 7834 c0 -11 3 -14 6 -6 3 7 2 16 -1 19 -3 4 -6 -2 -5 -13z"/>
<path d="M7460 6940 l-35 -7 43 -2 c23 0 42 4 42 9 0 6 -3 9 -7 9 -5 -1 -24
-5 -43 -9z"/>
<path d="M13060 6819 c0 -6 -4 -8 -9 -4 -33 20 -4 -64 49 -145 9 -14 27 -56
39 -95 18 -58 21 -91 20 -195 -1 -69 4 -186 11 -260 10 -106 10 -165 1 -275
-7 -77 -14 -171 -17 -210 -3 -38 -7 -82 -10 -96 -3 -14 -6 -61 -8 -105 -3 -43
-10 -176 -16 -294 -8 -133 -10 -270 -5 -360 4 -80 9 -193 10 -253 1 -59 6
-112 11 -117 19 -19 167 -32 387 -32 125 0 225 -3 222 -6 -14 -14 153 -50 272
-58 105 -8 117 1 105 78 -4 29 -4 71 1 93 4 22 10 52 14 68 3 15 9 27 13 27 4
0 8 31 8 69 1 39 5 87 11 108 5 21 12 63 16 93 3 30 12 91 20 135 20 116 34
244 40 370 3 61 7 135 10 165 17 218 29 560 26 739 -1 62 2 86 13 95 8 6 19
32 24 59 9 43 8 49 -11 59 -12 6 -28 17 -35 25 -7 7 -34 13 -58 13 -28 0 -63
9 -94 25 -28 14 -62 27 -78 30 -15 2 -47 9 -72 15 -44 11 -154 27 -217 32 -18
2 -33 6 -33 9 0 10 -47 21 -105 25 -27 3 -61 7 -75 11 -14 3 -32 7 -40 8 -62
8 -108 20 -127 32 -15 10 -50 15 -107 15 -104 1 -146 20 -146 67 0 23 -6 31
-30 40 -20 6 -30 7 -30 0z"/>
<path d="M13256 6810 c19 -12 38 -18 49 -14 16 7 16 8 0 17 -9 5 -31 11 -48
13 l-32 5 31 -21z"/>
<path d="M10004 6745 c-10 -25 26 -51 107 -79 48 -17 65 -12 34 9 -11 8 -38
27 -60 43 -53 38 -74 45 -81 27z"/>
<path d="M11723 6656 c-24 -11 -43 -24 -43 -30 0 -6 -10 -16 -22 -21 -28 -12
-57 -94 -51 -145 3 -20 -2 -55 -10 -78 -8 -23 -11 -39 -7 -37 5 3 10 0 12 -5
6 -18 87 29 103 60 8 16 15 33 14 37 -5 30 2 41 24 36 18 -4 19 -3 7 6 -8 6
-10 11 -5 11 17 0 36 52 42 116 7 73 -2 79 -64 50z"/>
<path d="M14400 6410 c0 -5 5 -10 10 -10 6 0 10 5 10 10 0 6 -4 10 -10 10 -5
0 -10 -4 -10 -10z"/>
<path d="M8420 6400 c-13 -8 -12 -10 3 -10 9 0 17 5 17 10 0 12 -1 12 -20 0z"/>
<path d="M8298 6253 c7 -3 16 -2 19 1 4 3 -2 6 -13 5 -11 0 -14 -3 -6 -6z"/>
<path d="M10145 4403 c-48 -12 -153 -16 -520 -18 -253 -2 -507 -6 -565 -10
-57 -3 -174 0 -260 6 -176 14 -337 3 -405 -28 -30 -13 -68 -18 -155 -19 -63
-1 -124 -4 -135 -7 -11 -3 -48 -8 -83 -12 -34 -4 -64 -11 -67 -15 -2 -4 -16
-5 -30 -2 -23 4 -41 -1 -116 -31 -31 -12 -59 -58 -59 -96 0 -15 -6 -33 -12
-40 -11 -11 -10 -14 0 -18 10 -4 8 -9 -5 -20 -15 -12 -15 -14 -1 -9 9 2 24 -4
34 -15 9 -10 21 -19 26 -19 8 0 64 -36 78 -50 14 -14 47 -2 62 23 10 15 27 27
37 27 11 0 24 7 29 15 6 11 31 18 83 22 41 3 79 9 85 14 6 5 36 11 68 15 53 6
58 5 63 -14 3 -12 9 -19 14 -16 5 3 9 -2 9 -12 0 -33 42 -93 70 -99 22 -5 33
-20 60 -82 19 -42 35 -84 36 -92 1 -9 6 -44 13 -77 6 -34 9 -70 5 -80 -5 -16
-4 -16 5 -4 6 8 11 13 11 10 1 -3 4 -54 7 -113 4 -76 2 -116 -7 -131 -11 -22
-88 -60 -140 -70 -14 -3 -41 -8 -60 -11 -19 -4 -48 -13 -65 -20 -16 -7 -61
-15 -99 -18 -38 -3 -72 -10 -75 -15 -8 -13 -94 -26 -123 -19 -19 5 -67 66 -60
75 2 1 -12 15 -30 30 -18 15 -34 30 -36 34 -2 4 -23 17 -48 29 -24 13 -44 28
-44 36 0 7 -5 13 -11 13 -5 0 -7 5 -4 10 3 6 2 10 -2 10 -5 0 -10 22 -11 49
-2 45 1 52 27 70 16 12 33 21 38 21 14 0 31 35 47 98 21 80 20 103 -4 109 -11
3 -20 8 -20 12 0 4 -16 15 -35 24 -19 9 -35 23 -35 31 0 8 -10 25 -22 38 -21
21 -56 27 -123 19 -12 -1 -35 -72 -41 -123 -2 -18 -12 -67 -23 -108 -12 -41
-21 -89 -21 -106 0 -17 -3 -34 -7 -38 -4 -4 -9 -30 -11 -58 -2 -48 -21 -78
-45 -74 -18 3 -57 -105 -57 -158 0 -35 -20 -96 -37 -114 -7 -7 -13 -18 -13
-23 0 -13 18 -11 23 4 3 6 6 2 6 -10 1 -14 -5 -23 -13 -23 -12 0 -12 -5 -3
-30 9 -23 9 -35 -1 -48 -26 -37 -42 -87 -42 -131 0 -25 -5 -75 -11 -111 -6
-36 -12 -103 -13 -150 -2 -47 -11 -102 -19 -122 -18 -44 -25 -98 -34 -283 -14
-285 -13 -293 48 -420 31 -66 21 -110 -42 -175 -14 -14 -38 -45 -54 -70 -17
-24 -65 -79 -107 -121 -43 -43 -78 -83 -78 -91 -1 -7 -9 -31 -20 -53 -11 -22
-19 -48 -20 -57 0 -9 -4 -19 -10 -23 -5 -3 -17 -31 -26 -63 -14 -43 -30 -70
-71 -111 l-53 -53 -58 5 c-31 3 -75 10 -97 16 -22 5 -85 19 -140 31 -55 12
-123 28 -152 36 -38 11 -68 13 -110 8 -32 -5 -73 -7 -91 -6 -63 4 -68 -5 -75
-125 -4 -81 -2 -118 10 -148 8 -22 21 -60 29 -85 28 -83 187 -414 209 -437 30
-29 49 -79 50 -125 0 -27 -3 -48 -7 -48 -4 0 -11 -18 -14 -41 -4 -22 -13 -46
-20 -53 -7 -8 -10 -16 -7 -20 4 -3 -1 -6 -10 -6 -9 0 -19 -4 -22 -10 -4 -7
1472 -10 4421 -10 l4426 0 -16 22 c-9 13 -26 41 -37 63 -41 83 -78 136 -165
245 -20 25 -60 60 -89 79 -30 19 -57 44 -62 55 -37 84 -60 118 -106 155 -77
63 -80 69 -57 131 11 30 24 56 28 59 5 3 13 17 17 31 4 14 19 50 35 80 15 30
33 73 40 95 7 21 24 60 36 86 13 26 24 55 24 66 0 10 5 24 10 29 14 14 93 240
126 359 41 148 48 203 46 345 -1 74 -3 156 -3 183 0 26 -5 47 -10 47 -5 0 -9
13 -9 29 0 37 -10 62 -21 55 -5 -3 -9 3 -9 12 0 25 -23 84 -32 84 -4 0 -8 8
-8 18 0 9 -17 38 -37 64 -21 25 -47 61 -57 79 -80 139 -116 203 -116 210 0 4
-14 16 -30 26 -25 14 -40 35 -45 63 -5 27 -28 80 -36 80 -5 0 -11 11 -15 25
-3 14 -10 25 -15 25 -5 0 -18 18 -29 39 -11 22 -29 46 -39 53 -11 8 -34 40
-50 72 -17 31 -36 63 -43 70 -7 8 -20 24 -28 36 -35 51 -75 100 -82 100 -4 0
-8 5 -8 11 0 6 -9 23 -20 37 -12 15 -38 50 -60 79 -21 28 -57 61 -80 74 -22
12 -40 29 -40 36 0 25 -34 51 -75 58 -22 3 -60 10 -85 15 -25 5 -65 11 -90 14
-25 2 -65 11 -90 20 -25 8 -63 19 -85 25 -22 5 -66 17 -97 26 -31 9 -79 16
-105 15 -67 -2 -86 6 -112 48 -21 35 -26 37 -76 38 -30 0 -60 6 -68 13 -9 6
-28 14 -44 17 -15 3 -39 13 -53 22 -25 18 -45 28 -150 75 -30 13 -86 45 -123
71 -38 25 -81 49 -95 52 -15 4 -31 10 -37 14 -34 25 -255 86 -360 99 -44 5
-103 15 -130 21 -28 7 -88 16 -135 20 -131 13 -304 47 -356 69 -26 12 -65 21
-88 21 -23 0 -66 6 -96 14 -62 16 -245 33 -430 41 -69 3 -170 7 -225 10 -55 2
-145 13 -199 25 -55 11 -114 18 -131 14 -18 -3 -69 3 -119 15 -48 12 -102 23
-119 26 -18 3 -39 7 -47 9 -8 2 -42 -3 -75 -11z m3655 -882 c41 -16 67 -20
100 -16 44 6 84 8 106 6 19 -2 23 -53 7 -78 -11 -17 -12 -23 -3 -23 10 0 9 -4
-1 -16 -15 -18 -17 -93 -6 -172 5 -35 4 -52 -2 -48 -6 4 -15 -3 -21 -14 -6
-11 -8 -20 -5 -20 3 0 -3 -9 -14 -21 -19 -20 -19 -21 0 -40 21 -21 25 -39 9
-39 -6 0 -9 3 -9 8 4 22 -3 32 -22 32 -12 0 -17 -4 -13 -11 4 -8 1 -8 -12 -2
-11 5 -25 8 -31 7 -7 -1 -21 -2 -31 -3 -27 -2 -49 -46 -32 -66 7 -8 20 -15 29
-15 34 0 71 -25 71 -47 0 -13 -4 -23 -10 -23 -5 0 -10 -7 -10 -14 0 -20 -61
-76 -82 -76 -10 0 -18 -4 -18 -9 0 -16 -124 -24 -186 -11 -139 27 -183 52
-210 117 -13 30 -12 35 4 51 21 21 56 32 117 35 22 2 48 8 58 13 16 9 17 12 3
23 -9 8 -16 20 -16 28 0 8 -5 11 -11 7 -13 -7 -109 91 -109 112 0 8 -7 14 -15
14 -8 0 -15 5 -15 11 0 19 23 104 30 109 4 3 12 14 18 25 6 11 12 14 12 7 0
-7 4 -11 9 -8 4 3 30 -10 56 -28 l47 -34 47 20 c70 30 74 42 32 91 -39 43 -42
75 -12 113 28 36 59 37 141 5z m207 -453 c-3 -8 -6 -5 -6 6 -1 11 2 17 5 13 3
-3 4 -12 1 -19z"/>
<path d="M16662 1418 c-6 -7 -9 -37 -7 -66 2 -45 8 -59 36 -88 18 -19 40 -34
50 -34 14 0 16 8 11 48 -2 26 -9 55 -13 64 -5 9 -9 30 -9 46 0 39 -44 58 -68
30z"/>
<path d="M15728 751 c-14 -16 -29 -38 -32 -48 -3 -10 -16 -19 -27 -20 -12 -1
-33 -13 -48 -27 -14 -14 -45 -43 -68 -65 -24 -21 -43 -45 -43 -54 0 -8 -6 -17
-13 -20 -23 -9 -83 -108 -101 -168 -9 -30 -30 -70 -46 -88 -17 -18 -30 -38
-30 -45 0 -7 -16 -31 -35 -53 -19 -23 -43 -64 -52 -92 -9 -28 -20 -51 -25 -51
-4 0 -8 -4 -8 -10 0 -7 145 -10 414 -10 369 0 415 2 420 16 3 9 4 20 1 25 -4
5 1 6 9 3 24 -9 20 23 -4 36 -11 6 -20 20 -20 31 0 15 -5 18 -24 13 -21 -5
-23 -3 -19 20 3 15 12 26 22 27 13 0 12 2 -3 8 -17 7 -17 8 -2 24 16 15 14 21
-6 18 -5 0 -8 3 -8 9 0 5 -7 10 -16 10 -8 0 -12 5 -9 10 3 6 1 10 -6 10 -8 0
-9 4 0 13 8 10 7 17 -2 27 -10 10 -9 11 3 5 13 -8 13 -7 1 8 -11 14 -11 17 0
17 9 0 10 3 3 8 -6 4 -12 32 -13 62 -2 40 -8 60 -23 75 -11 11 -17 14 -13 6 5
-8 -2 -7 -19 4 -45 30 -51 53 -22 76 14 11 23 26 20 33 -3 8 0 17 5 21 6 3 9
11 6 16 -4 5 -2 9 4 9 5 0 12 -8 14 -17 3 -10 4 -6 4 8 -1 19 -5 25 -16 21 -9
-3 -12 -1 -7 6 3 6 -3 17 -14 25 -12 8 -20 19 -18 24 5 15 -62 73 -85 73 -12
0 -34 -13 -49 -29z"/>
<path d="M16960 673 c-7 -32 -14 -62 -16 -68 -6 -15 48 -42 71 -36 28 8 31 49
7 71 -14 13 -19 29 -17 52 1 18 0 25 -2 16 -2 -10 -9 -18 -15 -18 -5 0 -8 7
-5 15 4 8 2 17 -3 20 -5 3 -14 -21 -20 -52z"/>
<path d="M21137 439 c-9 -6 -17 -20 -17 -33 0 -25 -28 -56 -52 -56 -8 0 -30
-13 -49 -29 -19 -17 -65 -51 -104 -77 -38 -26 -72 -50 -75 -53 -3 -4 -26 -19
-51 -33 -25 -15 -57 -42 -71 -60 -14 -18 -35 -44 -47 -57 -11 -13 -21 -28 -21
-33 0 -4 124 -8 275 -8 l275 0 0 178 c0 183 -5 226 -23 215 -6 -4 -8 0 -5 8 9
24 -15 49 -35 38z"/>
<path d="M17155 181 c-3 -5 -2 -12 3 -15 5 -3 7 -18 4 -35 -3 -22 0 -30 15
-34 10 -3 0 -5 -22 -6 -26 -1 -35 -4 -27 -10 19 -12 -2 -19 -50 -17 -21 1 -38
-1 -38 -4 0 -4 -9 -16 -19 -27 -20 -21 -20 -21 5 -27 14 -4 59 -6 100 -5 65 2
74 4 74 20 0 11 4 19 10 19 6 0 6 9 0 24 -7 20 -6 26 9 31 11 3 19 15 19 30 0
26 -18 38 -45 29 -15 -5 -16 -4 -3 5 12 9 11 11 -8 11 -13 0 -20 4 -17 10 3 6
4 10 1 10 -3 0 -7 -4 -11 -9z"/>
</g>
</svg>
